<svg width="393" height="284" viewBox="0 0 393 284" fill="none" xmlns="http://www.w3.org/2000/svg">
<mask id="mask0_5_108" style="mask-type:alpha" maskUnits="userSpaceOnUse" x="0" y="-1" width="393" height="285">
<path d="M0 -1H393V248C196.5 295.5 196.5 295.5 0 248V-1Z" fill="#E34242"/>
</mask>
<g mask="url(#mask0_5_108)">
<rect width="393" height="284" fill="#3876FF"/>
<path d="M-6.96644 152.26C12.3516 164.62 23.2797 172.401 41.0311 181.076C58.7728 189.804 83.3378 199.426 90.4883 215.379C97.6169 231.301 87.2775 253.543 71.2108 265.065C55.166 276.619 33.3624 277.475 9.57112 289.567C-14.2201 301.659 -40.0208 324.955 -61.5863 323.59C-83.1834 322.246 -100.577 296.263 -105.793 270.28C-111.041 244.318 -104.144 218.378 -98.1132 190.981C-92.0827 163.583 -86.9631 134.665 -70.4789 128.743C-54.0482 122.812 -26.2747 139.847 -6.96644 152.26Z" fill="#3D7AFD"/>
<path d="M421.325 188.579C445.507 204.051 459.187 213.79 481.407 224.649C503.616 235.575 534.366 247.62 543.317 267.59C552.24 287.52 539.297 315.361 519.186 329.785C499.101 344.247 471.808 345.319 442.027 360.455C412.246 375.592 379.949 404.753 352.954 403.044C325.919 401.363 304.147 368.838 297.617 336.313C291.048 303.815 299.682 271.344 307.231 237.048C314.779 202.753 321.188 166.553 341.822 159.141C362.39 151.717 397.156 173.04 421.325 188.579Z" fill="#3D7AFD"/>
</g>
</svg>
