<svg width="200" height="108" viewBox="0 0 200 108" fill="none" xmlns="http://www.w3.org/2000/svg">
<path d="M155.019 47.0156C172.805 47.0156 188.67 54.1075 198.997 65.155Z" fill="#AEBCC3"/>
<path d="M0 85.9222C2.38751 90.1603 7.07777 93.0282 12.4885 93.0282H185.689C193.6 93.0282 200 86.9252 200 79.3954V75.5527H191.919C191.002 75.5717 190.115 75.2275 189.451 74.595C188.786 73.9625 188.399 73.0931 188.373 72.1763V56.3255C178.489 49.9645 166.984 46.5807 155.231 46.5777H155.584L143.434 46.5212C131.596 21.092 108.667 0 78.4912 0C48.3577 0 23.084 19.8065 16.204 46.507H12.4885C4.662 46.507 0.0988906 52.5535 0.0988906 60.0127" fill="#3876FF"/>
<path d="M0 79.1834H3.03737C4.17284 79.2097 5.30236 79.012 6.3614 78.6016C7.42044 78.1912 8.38824 77.5762 9.20952 76.7916C10.0308 76.0071 10.6894 75.0684 11.1478 74.0293C11.6062 72.9901 11.8554 71.8708 11.881 70.7353V66.8503C11.881 62.1883 7.92541 58.4163 3.03737 58.4163H0.0847626" fill="#F5BB1D"/>
<path d="M21.0355 85.9222C21.0355 91.591 23.3991 97.0278 27.6063 101.036C31.8135 105.045 37.5197 107.297 43.4697 107.297C49.4196 107.297 55.1258 105.045 59.333 101.036C63.5402 97.0278 65.9038 91.591 65.9038 85.9222C65.9038 80.2533 63.5402 74.8165 59.333 70.808C55.1258 66.7995 49.4196 64.5476 43.4697 64.5476C37.5197 64.5476 31.8135 66.7995 27.6063 70.808C23.3991 74.8165 21.0355 80.2533 21.0355 85.9222Z" fill="#455963"/>
<path d="M34.0326 85.9221C34.0326 88.3089 35.0268 90.5978 36.7966 92.2855C38.5664 93.9731 40.9668 94.9212 43.4696 94.9212C45.9725 94.9212 48.3728 93.9731 50.1426 92.2855C51.9124 90.5978 52.9066 88.3089 52.9066 85.9221C52.9066 83.5354 51.9124 81.2465 50.1426 79.5588C48.3728 77.8712 45.9725 76.9231 43.4696 76.9231C40.9668 76.9231 38.5664 77.8712 36.7966 79.5588C35.0268 81.2465 34.0326 83.5354 34.0326 85.9221Z" fill="#AEBCC3"/>
<path d="M129.646 85.9222C129.646 91.591 132.008 97.0278 136.213 101.036C140.417 105.045 146.12 107.297 152.066 107.297C158.012 107.297 163.715 105.045 167.919 101.036C172.124 97.0278 174.486 91.591 174.486 85.9222C174.486 80.2533 172.124 74.8165 167.919 70.808C163.715 66.7995 158.012 64.5476 152.066 64.5476C146.12 64.5476 140.417 66.7995 136.213 70.808C132.008 74.8165 129.646 80.2533 129.646 85.9222Z" fill="#455963"/>
<path d="M142.643 85.9221C142.643 88.3089 143.637 90.5978 145.407 92.2855C147.177 93.9731 149.577 94.9212 152.08 94.9212C154.583 94.9212 156.983 93.9731 158.753 92.2855C160.523 90.5978 161.517 88.3089 161.517 85.9221C161.517 83.5354 160.523 81.2465 158.753 79.5588C156.983 77.8712 154.583 76.9231 152.08 76.9231C149.577 76.9231 147.177 77.8712 145.407 79.5588C143.637 81.2465 142.643 83.5354 142.643 85.9221Z" fill="#AEBCC3"/>
<path d="M199.011 65.1974V65.1551C195.837 61.7907 192.265 58.8256 188.373 56.3255V72.1763C188.373 74.0411 189.97 75.5527 191.919 75.5527H200V66.2146L199.011 65.1974Z" fill="#F5BB1D"/>
<path d="M75.2419 8.8013C52.0873 10.1999 33.0154 25.754 27.421 46.507H75.2419V8.8013ZM84.0997 46.507H131.921C122.823 27.3363 106.068 11.2736 84.0997 8.97083V46.507Z" fill="#3163D8"/>
</svg>
