<svg width="200" height="162" viewBox="0 0 200 162" fill="none" xmlns="http://www.w3.org/2000/svg">
<path d="M80.8883 96.3707C78.0609 96.3707 75.7687 94.0785 75.7687 91.2512V28.9203C75.7687 26.5207 73.8168 24.5688 71.4172 24.5688C69.0176 24.5688 67.0656 26.5207 67.0656 28.9203V91.252C67.0656 94.0793 64.7734 96.3715 61.9461 96.3715C59.1187 96.3715 56.8265 94.0793 56.8265 91.252V28.9203C56.8265 20.875 63.3719 14.3297 71.4172 14.3297C79.4625 14.3297 86.0078 20.875 86.0078 28.9203V91.252C86.0078 94.0789 83.7156 96.3707 80.8883 96.3707Z" fill="#3876FF"/>
<path d="M43.0039 96.3707C40.1765 96.3707 37.8843 94.0785 37.8843 91.2512V24.1844C37.8843 21.7848 35.9324 19.8328 33.5328 19.8328C31.1332 19.8328 29.1812 21.7848 29.1812 24.1844V37.2879C29.1812 40.1152 26.889 42.4074 24.0617 42.4074C21.2343 42.4074 18.9421 40.1152 18.9421 37.2879V24.1844C18.9421 16.1391 25.4875 9.59375 33.5328 9.59375C41.5781 9.59375 48.1234 16.1391 48.1234 24.1844V91.252C48.1234 94.0789 45.8312 96.3707 43.0039 96.3707Z" fill="#3876FF"/>
<path d="M61.9461 96.3707C59.1188 96.3707 56.8266 94.0785 56.8266 91.2512V14.7121C56.8266 12.3125 54.8746 10.3606 52.475 10.3606C50.0754 10.3606 48.1235 12.3125 48.1235 14.7121V91.2516C48.1235 94.0789 45.8313 96.3711 43.0039 96.3711C40.1766 96.3711 37.8844 94.0789 37.8844 91.2516V14.7121C37.8844 6.6668 44.4297 0.12149 52.475 0.12149C60.5203 0.12149 67.0657 6.6668 67.0657 14.7121V91.2516C67.0657 94.0789 64.7735 96.3707 61.9461 96.3707Z" fill="#3876FF"/>
<path d="M27.4687 148.091C25.5992 148.091 23.7977 147.063 22.8961 145.281C21.023 141.577 18.2777 138.302 14.9566 135.811C5.59141 128.786 0 117.603 0 105.896V64.8215C0 56.7762 6.54531 50.2309 14.5906 50.2309C22.6359 50.2309 29.1813 56.7762 29.1813 64.8215V86.9895C29.1813 89.8168 26.8891 92.109 24.0617 92.109C21.2344 92.109 18.9422 89.8168 18.9422 86.9895V64.8215C18.9422 62.4219 16.9902 60.4699 14.5906 60.4699C12.191 60.4699 10.2391 62.4219 10.2391 64.8215V105.896C10.2391 114.398 14.2992 122.519 21.1008 127.621C25.6734 131.051 29.4543 135.56 32.0336 140.661C33.3094 143.184 32.2984 146.264 29.775 147.539C29.0344 147.914 28.2457 148.091 27.4687 148.091Z" fill="#3876FF"/>
<path d="M99.8305 96.3707C97.0032 96.3707 94.711 94.0785 94.711 91.2512V43.1281C94.711 40.7285 92.759 38.7766 90.3594 38.7766C87.9598 38.7766 86.0079 40.7285 86.0079 43.1281V91.2516C86.0079 94.0789 83.7157 96.3711 80.8883 96.3711C78.061 96.3711 75.7688 94.0789 75.7688 91.2516V43.1281C75.7688 35.0828 82.3141 28.5375 90.3594 28.5375C98.4047 28.5375 104.95 35.0828 104.95 43.1281V91.2516C104.95 94.0789 102.658 96.3707 99.8305 96.3707Z" fill="#3876FF"/>
<path d="M138.054 96.3707C135.227 96.3707 132.934 94.0785 132.934 91.2512V28.9203C132.934 26.5207 130.982 24.5688 128.583 24.5688C126.183 24.5688 124.231 26.5207 124.231 28.9203V91.252C124.231 94.0793 121.939 96.3715 119.112 96.3715C116.284 96.3715 113.992 94.0793 113.992 91.252V28.9203C113.992 20.875 120.537 14.3297 128.583 14.3297C136.628 14.3297 143.173 20.875 143.173 28.9203V91.252C143.173 94.0789 140.882 96.3707 138.054 96.3707Z" fill="#3876FF"/>
<path d="M156.996 96.3707C154.169 96.3707 151.877 94.0785 151.877 91.2512V24.1844C151.877 16.1391 158.422 9.59375 166.467 9.59375C174.513 9.59375 181.058 16.1391 181.058 24.1844V37.2879C181.058 40.1152 178.766 42.4074 175.938 42.4074C173.111 42.4074 170.819 40.1152 170.819 37.2879V24.1844C170.819 21.7848 168.867 19.8328 166.467 19.8328C164.068 19.8328 162.116 21.7848 162.116 24.1844V91.252C162.116 94.0789 159.824 96.3707 156.996 96.3707Z" fill="#3876FF"/>
<path d="M156.996 96.3707C154.169 96.3707 151.877 94.0785 151.877 91.2512V14.7121C151.877 12.3125 149.925 10.3606 147.525 10.3606C145.125 10.3606 143.173 12.3125 143.173 14.7121V91.2516C143.173 94.0789 140.881 96.3711 138.054 96.3711C135.227 96.3711 132.934 94.0789 132.934 91.2516V14.7121C132.934 6.6668 139.48 0.12149 147.525 0.12149C155.57 0.12149 162.116 6.6668 162.116 14.7121V91.2516C162.116 94.0789 159.824 96.3707 156.996 96.3707Z" fill="#3876FF"/>
<path d="M172.531 148.091C171.754 148.091 170.966 147.914 170.225 147.539C167.702 146.264 166.691 143.184 167.967 140.661C170.546 135.56 174.327 131.051 178.9 127.62C185.701 122.519 189.761 114.397 189.761 105.895V64.8211C189.761 62.4215 187.809 60.4695 185.41 60.4695C183.01 60.4695 181.058 62.4215 181.058 64.8211V86.9891C181.058 89.8164 178.766 92.1086 175.939 92.1086C173.111 92.1086 170.819 89.8164 170.819 86.9891V64.8211C170.819 56.7758 177.364 50.2305 185.41 50.2305C193.455 50.2305 200 56.7758 200 64.8211V105.895C200 117.603 194.409 128.786 185.044 135.811C181.723 138.302 178.978 141.577 177.104 145.281C176.202 147.064 174.401 148.091 172.531 148.091Z" fill="#3876FF"/>
<path d="M119.112 96.3707C116.284 96.3707 113.992 94.0785 113.992 91.2512V43.1281C113.992 40.7285 112.04 38.7766 109.641 38.7766C107.241 38.7766 105.289 40.7285 105.289 43.1281V91.2516C105.289 94.0789 102.997 96.3711 100.17 96.3711C97.3422 96.3711 95.05 94.0789 95.05 91.2516V43.1281C95.05 35.0828 101.595 28.5375 109.641 28.5375C117.686 28.5375 124.231 35.0828 124.231 43.1281V91.2516C124.231 94.0789 121.939 96.3707 119.112 96.3707Z" fill="#3876FF"/>
<path d="M125.071 56.566C110.104 56.566 103.388 64.9555 100.747 69.8828C100.415 70.502 99.5137 70.5008 99.1828 69.8817C96.55 64.9535 89.8715 56.5656 74.9051 56.5656C57.8563 56.5656 42.859 68.2039 42.859 89.4563C42.859 98.0559 44.6114 105.423 49.4758 113.645C59.3883 130.401 92.043 152.122 98.7504 156.402C99.4922 156.875 100.431 156.877 101.174 156.405C107.887 152.146 140.547 130.532 150.538 113.645C155.402 105.423 157.142 98.0559 157.142 89.4563C157.141 68.2043 142.12 56.566 125.071 56.566Z" fill="#1B429D"/>
<path d="M99.964 161.879C98.5566 161.879 97.1847 161.478 95.9961 160.719C91.9476 158.136 56.1238 134.939 45.0687 116.253C39.9996 107.684 37.7386 99.4199 37.7386 89.4567C37.7386 78.0059 41.6219 68.2778 48.9687 61.3235C55.6976 54.9543 64.909 51.4465 74.9047 51.4465C87.7867 51.4465 95.5215 56.8219 99.9972 62.0512C104.352 57.0629 112.13 51.4465 125.071 51.4465C135.068 51.4465 144.282 54.9539 151.017 61.3219C158.373 68.2774 162.261 78.0063 162.261 89.4567C162.261 99.4336 160.004 107.697 154.943 116.253C143.807 135.078 107.966 158.159 103.916 160.729C102.732 161.48 101.364 161.879 99.964 161.879ZM74.9051 61.6856C61.5023 61.6856 47.9781 70.2727 47.9781 89.4567C47.9781 97.5899 49.7437 104.045 53.8812 111.039C62.8543 126.207 92.7504 146.364 99.973 151.095C114.18 141.919 138.362 124.17 146.13 111.039C150.26 104.059 152.022 97.6043 152.022 89.4567C152.022 70.2727 138.486 61.6856 125.07 61.6856C113.4 61.6856 107.854 67.459 105.257 72.3024C104.211 74.2539 102.183 75.466 99.9648 75.466C97.7418 75.466 95.7121 74.25 94.6668 72.2934C92.0812 67.4547 86.5535 61.6856 74.9051 61.6856Z" fill="#3876FF"/>
</svg>
