<svg width="200" height="176" viewBox="0 0 200 176" fill="none" xmlns="http://www.w3.org/2000/svg">
<path d="M180.034 35.0159V172.215H19.8688V35.0159L99.9514 3.78395L180.034 35.0159Z" fill="#4E618D"/>
<path d="M180.034 46.9499H19.8683V74.4014H180.034" fill="#6278AC"/>
<path d="M180.034 35.0159V46.9499H19.8688V35.0159L99.9514 3.78395L180.034 35.0159Z" fill="#3876FF"/>
<path d="M149.173 147.221V121.926C149.173 117.895 145.905 114.627 141.874 114.627H58.0265C53.9956 114.627 50.7273 117.895 50.7273 121.926V147.221" fill="#3876FF"/>
<path d="M138.533 114.629H60.4855L64.8491 96.1322C65.7847 92.1588 69.3323 89.3518 73.4167 89.3518H125.597C129.682 89.3518 133.229 92.1588 134.165 96.1322L138.533 114.629Z" fill="#4EBFED"/>
<path d="M138.533 114.629H94.8885L106.024 89.3521H125.597C129.682 89.3521 133.229 92.1592 134.165 96.1326L138.533 114.629Z" fill="#92DDF4"/>
<path d="M67.5776 138.574C71.7411 138.574 75.1163 135.198 75.1163 131.035C75.1163 126.871 71.7411 123.496 67.5776 123.496C63.4141 123.496 60.0389 126.871 60.0389 131.035C60.0389 135.198 63.4141 138.574 67.5776 138.574Z" fill="#FCD577"/>
<path d="M132.321 138.574C136.485 138.574 139.86 135.198 139.86 131.035C139.86 126.871 136.485 123.496 132.321 123.496C128.158 123.496 124.783 126.871 124.783 131.035C124.783 135.198 128.158 138.574 132.321 138.574Z" fill="#FCD577"/>
<path d="M154.937 147.221H44.9617V157.864H154.937V147.221Z" fill="#6278AC"/>
<path d="M69.7947 157.864H52.9436V172.216H69.7947V157.864Z" fill="#808080"/>
<path d="M146.955 157.864H130.104V172.216H146.955V157.864Z" fill="#808080"/>
<path d="M197.882 38.3886L144.357 17.5136C142.645 16.846 140.717 17.6929 140.049 19.4035C139.382 21.1148 140.228 23.0433 141.939 23.7101L176.765 37.2925C176.763 37.3483 176.757 37.4034 176.757 37.4597V43.6233H59.8882C58.0511 43.6233 56.5624 45.1124 56.5624 46.9491C56.5624 48.7858 58.0511 50.2749 59.8882 50.2749H176.757V57.3491H155.003C153.166 57.3491 151.677 58.8381 151.677 60.6749C151.677 62.5116 153.166 64.0006 155.003 64.0006H176.757V71.0748H23.2429V64.0006H143.917C145.754 64.0006 147.243 62.5116 147.243 60.6749C147.243 58.8381 145.754 57.3491 143.917 57.3491H23.2429V50.2749H48.8023C50.6394 50.2749 52.128 48.7858 52.128 46.9491C52.128 45.1124 50.6394 43.6233 48.8023 43.6233H23.2429V37.4597C23.2429 37.4034 23.2371 37.3483 23.2343 37.2925L100 7.35309L129.276 18.771C130.988 19.4386 132.916 18.5917 133.583 16.8812C134.251 15.1699 133.404 13.2414 131.694 12.5746L101.21 0.685133C100.432 0.381618 99.5701 0.381618 98.7924 0.685133L2.11798 38.3886C0.407051 39.0561 -0.439432 40.9847 0.228145 42.6952C0.740644 44.0097 1.99689 44.8136 3.32736 44.8136C3.72931 44.8136 4.1379 44.7401 4.53517 44.585L16.5906 39.8835V120.713C16.5906 122.549 18.0793 124.038 19.9164 124.038C21.7535 124.038 23.2422 122.549 23.2422 120.713V77.7279H176.756V168.891H150.33V161.19H154.986C156.824 161.19 158.312 159.7 158.312 157.864V147.221C158.312 145.384 156.824 143.895 154.986 143.895H152.547V121.926C152.547 118.336 150.755 115.157 148.02 113.233L150.497 110.756H155.873C157.71 110.756 159.199 109.267 159.199 107.43C159.199 105.594 157.71 104.104 155.873 104.104H149.119C148.237 104.104 147.392 104.455 146.767 105.079L141.084 110.763L137.451 95.3693C136.152 89.8674 131.297 86.0248 125.645 86.0248H73.4663C67.8136 86.0248 62.9589 89.8674 61.6601 95.3693L58.1968 110.045L53.2312 105.078C52.6073 104.454 51.7616 104.104 50.8792 104.104H44.1253C42.2882 104.104 40.7995 105.593 40.7995 107.43C40.7995 109.267 42.2882 110.756 44.1253 110.756H49.5019L51.9788 113.233C49.2437 115.157 47.4511 118.335 47.4511 121.926V143.895H45.012C43.1749 143.895 41.6863 145.384 41.6863 147.22V157.863C41.6863 159.7 43.1749 161.189 45.012 161.189H49.6683V168.89H23.2429V131.799C23.2429 129.962 21.7543 128.473 19.9172 128.473C18.0801 128.473 16.5914 129.962 16.5914 131.799V168.89H6.74376C4.90665 168.89 3.41798 170.379 3.41798 172.216C3.41798 174.052 4.90665 175.541 6.74376 175.541H193.256C195.093 175.541 196.582 174.052 196.582 172.216C196.582 170.379 195.093 168.89 193.256 168.89H183.409V39.8839L195.465 44.5858C195.863 44.7405 196.271 44.8143 196.673 44.8143C198.004 44.8143 199.26 44.0104 199.772 42.696C200.439 40.9843 199.593 39.0558 197.882 38.3886ZM68.1339 96.8971C68.7202 94.4119 70.9132 92.6767 73.4659 92.6767H125.645C128.199 92.6767 130.391 94.4123 130.977 96.8971L134.377 111.302H64.7343L68.1339 96.8971ZM48.337 150.547H70.0862C71.9233 150.547 73.412 149.058 73.412 147.221C73.412 145.384 71.9233 143.895 70.0862 143.895H54.1019V121.927C54.1019 119.736 55.8847 117.953 58.0753 117.953H141.923C144.113 117.953 145.896 119.736 145.896 121.927V143.895H81.1725C79.3354 143.895 77.8467 145.384 77.8467 147.221C77.8467 149.058 79.3354 150.547 81.1725 150.547H151.661V154.538H48.337V150.547ZM126.828 161.19V168.89H73.1706V161.19H126.828ZM56.3194 168.891V161.19H66.5186V168.891H56.3194ZM133.48 168.891V161.19H143.679V168.891H133.48Z" fill="black"/>
<path d="M78.4917 131.035C78.4917 125.044 73.6183 120.17 67.6273 120.17C61.6362 120.17 56.7628 125.044 56.7628 131.035C56.7628 137.025 61.6362 141.899 67.6273 141.899C73.6183 141.899 78.4917 137.025 78.4917 131.035ZM67.6273 135.248C65.3046 135.248 63.4144 133.358 63.4144 131.035C63.4144 128.712 65.3042 126.822 67.6273 126.822C69.9503 126.822 71.8401 128.712 71.8401 131.035C71.8401 133.358 69.9503 135.248 67.6273 135.248Z" fill="black"/>
<path d="M132.371 141.9C138.362 141.9 143.235 137.026 143.235 131.035C143.235 125.045 138.362 120.171 132.371 120.171C126.38 120.171 121.506 125.045 121.506 131.035C121.506 137.025 126.38 141.9 132.371 141.9ZM132.371 126.822C134.694 126.822 136.584 128.712 136.584 131.035C136.584 133.358 134.694 135.248 132.371 135.248C130.048 135.248 128.158 133.358 128.158 131.035C128.158 128.712 130.048 126.822 132.371 126.822Z" fill="black"/>
</svg>
