<svg width="393" height="284" viewBox="0 0 393 284" fill="none" xmlns="http://www.w3.org/2000/svg">
<mask id="mask0_5_120" style="mask-type:alpha" maskUnits="userSpaceOnUse" x="0" y="0" width="393" height="284">
<path d="M0 0H393V248.125C196.5 295.458 196.5 295.458 0 248.125V0Z" fill="white"/>
</mask>
<g mask="url(#mask0_5_120)">
<rect width="393" height="284" fill="#3876FF"/>
<path d="M-6.96645 152.722C12.3516 165.039 23.2797 172.792 41.0311 181.436C58.7728 190.134 83.3378 199.722 90.4883 215.619C97.6169 231.485 87.2775 253.648 71.2108 265.13C55.166 276.643 33.3623 277.496 9.57111 289.546C-14.2201 301.595 -40.0208 324.81 -61.5863 323.449C-83.1834 322.11 -100.577 296.219 -105.793 270.327C-111.041 244.456 -104.144 218.608 -98.1132 191.306C-92.0827 164.005 -86.9631 135.188 -70.4789 129.288C-54.0482 123.377 -26.2747 140.352 -6.96645 152.722Z" fill="#3D7AFD"/>
<path d="M421.325 188.913C445.507 204.331 459.187 214.036 481.407 224.857C503.616 235.744 534.366 247.747 543.317 267.646C552.24 287.506 539.297 315.25 519.186 329.622C499.101 344.034 471.808 345.102 442.027 360.185C412.246 375.268 379.949 404.328 352.954 402.625C325.919 400.949 304.147 368.539 297.617 336.128C291.048 303.744 299.682 271.387 307.231 237.212C314.779 203.037 321.188 166.965 341.822 159.579C362.39 152.181 397.156 173.429 421.325 188.913Z" fill="#3D7AFD"/>
</g>
</svg>
