<svg width="1000" height="1000" viewBox="0 0 1000 1000" fill="none" xmlns="http://www.w3.org/2000/svg">
<g clip-path="url(#clip0_12_2)">
<path d="M500 1000C223.9 1000 0 776.1 0 500C0 223.9 223.9 0 500 0C776.1 0 1000 223.9 1000 500C1000 776.1 776.1 1000 500 1000Z" fill="#25D366"/>
<path fill-rule="evenodd" clip-rule="evenodd" d="M733.9 267.2C671.9 205.1 589.3 170.9 501.4 170.8C320.3 170.8 172.8 318.2 172.8 499.4C172.8 557.3 187.9 613.9 216.7 663.7L170.1 834L344.3 788.3C392.3 814.5 446.3 828.3 501.3 828.3H501.4C682.5 828.3 829.9 680.9 830 499.7C830.1 411.9 796 329.3 733.9 267.2ZM501.5 772.8H501.4C452.4 772.8 404.3 759.6 362.4 734.7L352.4 728.8L249 755.9L276.6 655.1L270.1 644.8C242.8 601.3 228.3 551.1 228.3 499.4C228.4 348.8 350.9 226.3 501.6 226.3C574.6 226.3 643.1 254.8 694.7 306.4C746.3 358 774.7 426.7 774.6 499.6C774.6 650.3 652 772.8 501.5 772.8ZM651.3 568.2C643.1 564.1 602.7 544.2 595.2 541.5C587.7 538.8 582.2 537.4 576.7 545.6C571.2 553.8 555.5 572.3 550.7 577.8C545.9 583.3 541.1 584 532.9 579.9C524.7 575.8 498.2 567.1 466.9 539.1C442.5 517.3 426 490.4 421.2 482.2C416.4 474 420.7 469.5 424.8 465.4C428.5 461.7 433 455.8 437.1 451C441.2 446.2 442.6 442.8 445.3 437.3C448 431.8 446.7 427 444.6 422.9C442.5 418.8 426.1 378.4 419.3 361.9C412.6 345.9 405.9 348.1 400.8 347.8C396 347.6 390.5 347.5 385.1 347.5C379.6 347.5 370.7 349.6 363.2 357.8C355.7 366 334.5 385.9 334.5 426.3C334.5 466.7 363.9 505.8 368 511.2C372.1 516.7 425.9 599.6 508.3 635.2C527.9 643.7 543.2 648.7 555.1 652.5C574.8 658.8 592.7 657.9 606.8 655.8C622.6 653.4 655.4 635.9 662.2 616.8C669 597.6 669 581.2 667 577.8C665 574.4 659.5 572.4 651.3 568.2Z" fill="white"/>
</g>
<defs>
<clipPath id="clip0_12_2">
<rect width="1000" height="1000" fill="white"/>
</clipPath>
</defs>
</svg>
